<svg xmlns="http://www.w3.org/2000/svg" width="1920" height="1080" viewBox="0 0 1920 1080"><path d="M43,141 Q467.2,139 928,141 Q931,284.06 930,432 Q502.8,435 41,434 Q39,287.0 43,141" fill="none" stroke="#111" stroke-width="2.3" stroke-linecap="round" stroke-linejoin="round"/><path d="M41,144 L929,143" fill="none" stroke="#111" stroke-width="0.6"/><path d="M63,446 Q468.0,444 908,446 Q911,680.2 910,923 Q502.0,926 61,925 Q59,685.0 63,446" fill="none" stroke="#111" stroke-width="2.3" stroke-linecap="round" stroke-linejoin="round"/><path d="M61,449 L909,448" fill="none" stroke="#111" stroke-width="0.6"/><path d="M958,141 Q1391.8,139 1863,141 Q1866,407.54 1865,684 Q1428.2,687 956,686 Q954,413.0 958,141" fill="none" stroke="#111" stroke-width="2.3" stroke-linecap="round" stroke-linejoin="round"/><path d="M956,144 L1864,143" fill="none" stroke="#111" stroke-width="0.6"/><path d="M958,694 Q1391.8,692 1863,694 Q1866,794.43 1865,898 Q1428.2,901 956,900 Q954,796.5 958,694" fill="none" stroke="#111" stroke-width="2.3" stroke-linecap="round" stroke-linejoin="round"/><path d="M956,697 L1864,696" fill="none" stroke="#111" stroke-width="0.6"/><path d="M163,930 Q918.4,928 1738,930 Q1741,959.87 1740,990 Q981.6,993 161,992 Q159,960.5 163,930" fill="none" stroke="#111" stroke-width="2.3" stroke-linecap="round" stroke-linejoin="round"/><path d="M161,933 L1739,932" fill="none" stroke="#111" stroke-width="0.6"/></svg>