<svg xmlns="http://www.w3.org/2000/svg" width="1800" height="735" viewBox="0 0 1800 735"><defs><marker id="a" markerWidth="8" markerHeight="8" refX="7" refY="4" orient="auto"><path d="M0 0 L8 4 L0 8" fill="#111111"/></marker></defs><rect x="2" y="5" width="316" height="715" rx="12" fill="#FFFFFF" stroke="#111111" stroke-width="2"/><text x="17" y="35" font-family="Arial,sans-serif" font-size="19" font-weight="700" fill="#111111">ZONE 1</text><text x="17" y="66" font-family="Arial,sans-serif" font-size="23" font-weight="700" fill="#111111">USERS &amp; INPUTS</text><text x="17" y="94" font-family="Arial,sans-serif" font-size="20" font-weight="400" fill="#111111">Station observations</text><rect x="332" y="5" width="316" height="715" rx="12" fill="#FFFFFF" stroke="#111111" stroke-width="2"/><text x="347" y="35" font-family="Arial,sans-serif" font-size="19" font-weight="700" fill="#111111">ZONE 2</text><text x="347" y="66" font-family="Arial,sans-serif" font-size="23" font-weight="700" fill="#111111">FRONTEND</text><text x="347" y="94" font-family="Arial,sans-serif" font-size="20" font-weight="400" fill="#111111">Presentation layer</text><rect x="662" y="5" width="316" height="715" rx="12" fill="#FFFFFF" stroke="#111111" stroke-width="2"/><text x="677" y="35" font-family="Arial,sans-serif" font-size="19" font-weight="700" fill="#111111">ZONE 3</text><text x="677" y="66" font-family="Arial,sans-serif" font-size="23" font-weight="700" fill="#111111">BACKEND</text><text x="677" y="94" font-family="Arial,sans-serif" font-size="20" font-weight="400" fill="#111111">Application layer</text><rect x="992" y="5" width="316" height="715" rx="12" fill="#FFFFFF" stroke="#111111" stroke-width="2"/><text x="1007" y="35" font-family="Arial,sans-serif" font-size="19" font-weight="700" fill="#111111">ZONE 4</text><text x="1007" y="66" font-family="Arial,sans-serif" font-size="23" font-weight="700" fill="#111111">DATA &amp; INTELLIGENCE</text><text x="1007" y="94" font-family="Arial,sans-serif" font-size="20" font-weight="400" fill="#111111">Detection layer</text><rect x="17" y="160" width="285" height="144" rx="12" fill="#FFFFFF" stroke="#111111" stroke-width="2"/><circle cx="46" cy="187" r="19" fill="#111111"/><svg x="34.22" y="175.22" width="23.56" height="23.56" viewBox="0 0 24 24"><g fill="none" stroke="white" stroke-width="1.7" stroke-linecap="round" stroke-linejoin="round"><path d="M10 14V5a2 2 0 0 1 4 0v9a5 5 0 1 1-4 0Z"/><path d="M12 9v9"/></g></svg><text x="72" y="193" font-family="Arial,sans-serif" font-size="20" font-weight="700" fill="#111111">WEATHER READINGS</text><text x="31" y="225" font-family="Arial,sans-serif" font-size="21" font-weight="400" fill="#111111">Temperature</text><text x="31" y="253" font-family="Arial,sans-serif" font-size="21" font-weight="400" fill="#111111">Pressure + humidity</text><text x="31" y="281" font-family="Arial,sans-serif" font-size="21" font-weight="400" fill="#111111">Station ID + timestamp</text><rect x="17" y="348" width="285" height="144" rx="12" fill="#FFFFFF" stroke="#111111" stroke-width="2"/><circle cx="46" cy="375" r="19" fill="#111111"/><svg x="34.22" y="363.22" width="23.56" height="23.56" viewBox="0 0 24 24"><g fill="none" stroke="white" stroke-width="1.7" stroke-linecap="round" stroke-linejoin="round"><path d="M6 17H5a4 4 0 0 1-1-8 7 7 0 0 1 13-2 5 5 0 0 1 2 10h-1M12 21V11m-4 4 4-4 4 4"/></g></svg><text x="72" y="381" font-family="Arial,sans-serif" font-size="20" font-weight="700" fill="#111111">INPUT CHANNELS</text><text x="31" y="413" font-family="Arial,sans-serif" font-size="21" font-weight="400" fill="#111111">Simulator for the demo</text><text x="31" y="441" font-family="Arial,sans-serif" font-size="21" font-weight="400" fill="#111111">HTTP / CSV ingestion</text><text x="31" y="469" font-family="Arial,sans-serif" font-size="21" font-weight="400" fill="#111111">Real feed not connected</text><rect x="17" y="538" width="285" height="116" rx="12" fill="#FFFFFF" stroke="#111111" stroke-width="2"/><circle cx="46" cy="565" r="19" fill="#111111"/><svg x="34.22" y="553.22" width="23.56" height="23.56" viewBox="0 0 24 24"><g fill="none" stroke="white" stroke-width="1.7" stroke-linecap="round" stroke-linejoin="round"><circle cx="12" cy="7" r="4"/><path d="M4 22v-4a8 8 0 0 1 16 0v4"/></g></svg><text x="72" y="571" font-family="Arial,sans-serif" font-size="20" font-weight="700" fill="#111111">STATION OPERATOR</text><text x="31" y="603" font-family="Arial,sans-serif" font-size="21" font-weight="400" fill="#111111">Views status and history</text><text x="31" y="631" font-family="Arial,sans-serif" font-size="21" font-weight="400" fill="#111111">Investigates alerts</text><rect x="347" y="160" width="285" height="116" rx="12" fill="#FFFFFF" stroke="#111111" stroke-width="2"/><circle cx="376" cy="187" r="19" fill="#111111"/><svg x="364.22" y="175.22" width="23.56" height="23.56" viewBox="0 0 24 24"><g fill="none" stroke="white" stroke-width="1.7" stroke-linecap="round" stroke-linejoin="round"><path d="M20 10c0 6-8 12-8 12S4 16 4 10a8 8 0 0 1 16 0Z"/><circle cx="12" cy="10" r="3"/></g></svg><text x="402" y="193" font-family="Arial,sans-serif" font-size="20" font-weight="700" fill="#111111">MAP &amp; MONITORING</text><text x="361" y="225" font-family="Arial,sans-serif" font-size="21" font-weight="400" fill="#111111">Station status dots</text><text x="361" y="253" font-family="Arial,sans-serif" font-size="21" font-weight="400" fill="#111111">Latest stored readings</text><rect x="347" y="310" width="285" height="144" rx="12" fill="#FFFFFF" stroke="#111111" stroke-width="2"/><circle cx="376" cy="337" r="19" fill="#111111"/><svg x="364.22" y="325.22" width="23.56" height="23.56" viewBox="0 0 24 24"><g fill="none" stroke="white" stroke-width="1.7" stroke-linecap="round" stroke-linejoin="round"><path d="M4 20V12m5 8V5m6 15V9m5 11V2"/></g></svg><text x="402" y="343" font-family="Arial,sans-serif" font-size="20" font-weight="700" fill="#111111">STATION REPORT</text><text x="361" y="375" font-family="Arial,sans-serif" font-size="21" font-weight="400" fill="#111111">History charts</text><text x="361" y="403" font-family="Arial,sans-serif" font-size="21" font-weight="400" fill="#111111">Neighbor comparisons</text><text x="361" y="431" font-family="Arial,sans-serif" font-size="21" font-weight="400" fill="#111111">Detection explanation</text><rect x="347" y="500" width="285" height="116" rx="12" fill="#FFFFFF" stroke="#111111" stroke-width="2"/><circle cx="376" cy="527" r="19" fill="#111111"/><svg x="364.22" y="515.22" width="23.56" height="23.56" viewBox="0 0 24 24"><g fill="none" stroke="white" stroke-width="1.7" stroke-linecap="round" stroke-linejoin="round"><rect x="5" y="4" width="14" height="18" rx="2"/><rect x="9" y="2" width="6" height="4" rx="1"/></g></svg><text x="402" y="533" font-family="Arial,sans-serif" font-size="20" font-weight="700" fill="#111111">REVIEW WORKSPACE</text><text x="361" y="565" font-family="Arial,sans-serif" font-size="21" font-weight="400" fill="#111111">Incidents + notes</text><text x="361" y="593" font-family="Arial,sans-serif" font-size="21" font-weight="400" fill="#111111">Correction decisions</text><rect x="677" y="160" width="285" height="116" rx="12" fill="#FFFFFF" stroke="#111111" stroke-width="2"/><circle cx="706" cy="187" r="19" fill="#111111"/><svg x="694.22" y="175.22" width="23.56" height="23.56" viewBox="0 0 24 24"><g fill="none" stroke="white" stroke-width="1.7" stroke-linecap="round" stroke-linejoin="round"><rect x="3" y="3" width="18" height="7" rx="2"/><rect x="3" y="14" width="18" height="7" rx="2"/><path d="M7 6h1m-1 11h1"/></g></svg><text x="732" y="193" font-family="Arial,sans-serif" font-size="20" font-weight="700" fill="#111111">FASTAPI ENDPOINTS</text><text x="691" y="225" font-family="Arial,sans-serif" font-size="21" font-weight="400" fill="#111111">Validate time + schema</text><text x="691" y="253" font-family="Arial,sans-serif" font-size="21" font-weight="400" fill="#111111">Flag missing / late data</text><rect x="677" y="310" width="285" height="116" rx="12" fill="#FFFFFF" stroke="#111111" stroke-width="2"/><circle cx="706" cy="337" r="19" fill="#111111"/><svg x="694.22" y="325.22" width="23.56" height="23.56" viewBox="0 0 24 24"><g fill="none" stroke="white" stroke-width="1.7" stroke-linecap="round" stroke-linejoin="round"><circle cx="10" cy="10" r="7"/><path d="m15 15 7 7"/></g></svg><text x="732" y="343" font-family="Arial,sans-serif" font-size="20" font-weight="700" fill="#111111">DIAGNOSTIC SERVICE</text><text x="691" y="375" font-family="Arial,sans-serif" font-size="21" font-weight="400" fill="#111111">Read past observations</text><text x="691" y="403" font-family="Arial,sans-serif" font-size="21" font-weight="400" fill="#111111">Run checks; store result</text><rect x="677" y="470" width="285" height="116" rx="12" fill="#FFFFFF" stroke="#111111" stroke-width="2"/><circle cx="706" cy="497" r="19" fill="#111111"/><svg x="694.22" y="485.22" width="23.56" height="23.56" viewBox="0 0 24 24"><g fill="none" stroke="white" stroke-width="1.7" stroke-linecap="round" stroke-linejoin="round"><path d="m6 12 4 4 10-11"/><path d="M20 12v7a2 2 0 0 1-2 2H5a2 2 0 0 1-2-2V5a2 2 0 0 1 2-2h10"/></g></svg><text x="732" y="503" font-family="Arial,sans-serif" font-size="20" font-weight="700" fill="#111111">REVIEW SERVICE</text><text x="691" y="535" font-family="Arial,sans-serif" font-size="21" font-weight="400" fill="#111111">Save operator decisions</text><text x="691" y="563" font-family="Arial,sans-serif" font-size="21" font-weight="400" fill="#111111">Keep proposals separate</text><rect x="677" y="610" width="285" height="88" rx="12" fill="#FFFFFF" stroke="#111111" stroke-width="2"/><circle cx="706" cy="637" r="19" fill="#111111"/><svg x="694.22" y="625.22" width="23.56" height="23.56" viewBox="0 0 24 24"><g fill="none" stroke="white" stroke-width="1.7" stroke-linecap="round" stroke-linejoin="round"><ellipse cx="12" cy="5" rx="8" ry="3"/><path d="M4 5v14c0 4 16 4 16 0V5M4 12c0 4 16 4 16 0"/></g></svg><text x="732" y="643" font-family="Arial,sans-serif" font-size="20" font-weight="700" fill="#111111">SQLITE STORAGE</text><text x="691" y="675" font-family="Arial,sans-serif" font-size="21" font-weight="400" fill="#111111">Keep originals + decisions</text><rect x="1007" y="143" width="285" height="172" rx="12" fill="#FFFFFF" stroke="#111111" stroke-width="2"/><circle cx="1036" cy="170" r="19" fill="#111111"/><svg x="1024.22" y="158.22" width="23.56" height="23.56" viewBox="0 0 24 24"><g fill="none" stroke="white" stroke-width="1.7" stroke-linecap="round" stroke-linejoin="round"><path d="m2 7 10-5 10 5-10 5Zm0 5 10 5 10-5M2 17l10 5 10-5"/></g></svg><text x="1062" y="176" font-family="Arial,sans-serif" font-size="20" font-weight="700" fill="#111111">HYBRID CHECKS</text><text x="1021" y="208" font-family="Arial,sans-serif" font-size="21" font-weight="400" fill="#111111">History: spikes / drift</text><text x="1021" y="236" font-family="Arial,sans-serif" font-size="21" font-weight="400" fill="#111111">ML: Isolation Forest</text><text x="1021" y="264" font-family="Arial,sans-serif" font-size="21" font-weight="400" fill="#111111">Physics: T / P / RH</text><text x="1021" y="292" font-family="Arial,sans-serif" font-size="21" font-weight="400" fill="#111111">Virtual Buddy: peers</text><rect x="1007" y="354" width="285" height="144" rx="12" fill="#FFFFFF" stroke="#111111" stroke-width="2"/><circle cx="1036" cy="381" r="19" fill="#111111"/><svg x="1024.22" y="369.22" width="23.56" height="23.56" viewBox="0 0 24 24"><g fill="none" stroke="white" stroke-width="1.7" stroke-linecap="round" stroke-linejoin="round"><circle cx="5" cy="5" r="3"/><circle cx="19" cy="7" r="3"/><circle cx="14" cy="20" r="3"/><path d="m8 5 8 2M6 8l6 9m6-7-3 7"/></g></svg><text x="1062" y="387" font-family="Arial,sans-serif" font-size="20" font-weight="700" fill="#111111">EVIDENCE FUSION</text><text x="1021" y="419" font-family="Arial,sans-serif" font-size="21" font-weight="400" fill="#111111">Combine available clues</text><text x="1021" y="447" font-family="Arial,sans-serif" font-size="21" font-weight="400" fill="#111111">Explain the likely issue</text><text x="1021" y="475" font-family="Arial,sans-serif" font-size="21" font-weight="400" fill="#111111">Weak evidence? Review</text><rect x="1007" y="530" width="285" height="144" rx="12" fill="#FFFFFF" stroke="#111111" stroke-width="2"/><circle cx="1036" cy="557" r="19" fill="#111111"/><svg x="1024.22" y="545.22" width="23.56" height="23.56" viewBox="0 0 24 24"><g fill="none" stroke="white" stroke-width="1.7" stroke-linecap="round" stroke-linejoin="round"><path d="M3 3h9l10 10-9 9L3 12Z"/><circle cx="8" cy="8" r="1"/></g></svg><text x="1062" y="563" font-family="Arial,sans-serif" font-size="20" font-weight="700" fill="#111111">OUTPUT CLASSES</text><text x="1021" y="595" font-family="Arial,sans-serif" font-size="21" font-weight="400" fill="#111111">Healthy / weather</text><text x="1021" y="623" font-family="Arial,sans-serif" font-size="21" font-weight="400" fill="#111111">Sensor / data issue</text><text x="1021" y="651" font-family="Arial,sans-serif" font-size="21" font-weight="400" fill="#111111">Complex / needs review</text><path d="M160,160 V120 H820 V151" fill="none" stroke="#111111" stroke-width="3" marker-end="url(#a)"/><text x="340" y="141" font-family="Arial,sans-serif" font-size="19" font-weight="400" fill="#111111">Timestamped samples → ingestion</text><path d="M302,583 H338" fill="none" stroke="#111111" stroke-width="3" marker-end="url(#a)"/><text x="305" y="570" font-family="Arial,sans-serif" font-size="17" font-weight="400" fill="#111111"></text><path d="M632,365 H667" fill="none" stroke="#111111" stroke-width="3" marker-end="url(#a)"/><path d="M677,400 H642" fill="none" stroke="#111111" stroke-width="3" marker-end="url(#a)"/><path d="M962,348 H997" fill="none" stroke="#111111" stroke-width="3" marker-end="url(#a)"/><path d="M1007,409 H972" fill="none" stroke="#111111" stroke-width="3" marker-end="url(#a)"/><path d="M820,276 V301" fill="none" stroke="#111111" stroke-width="3" marker-end="url(#a)"/><path d="M820,425 V460" fill="none" stroke="#111111" stroke-width="3" marker-end="url(#a)"/><path d="M820,585 V602" fill="none" stroke="#111111" stroke-width="3" marker-end="url(#a)"/><path d="M1150,326 V345" fill="none" stroke="#111111" stroke-width="3" marker-end="url(#a)"/><path d="M1150,498 V521" fill="none" stroke="#111111" stroke-width="3" marker-end="url(#a)"/><rect x="1340" y="5" width="450" height="715" rx="12" fill="#FFFFFF" stroke="#111111" stroke-width="2"/><text x="1362" y="45" font-family="Arial,sans-serif" font-size="25" font-weight="700" fill="#111111">IMPLEMENTATION PROCESS</text><path d="M1384,130 V191" stroke="#111111" stroke-width="8"/><circle cx="1384" cy="105" r="24" fill="#111111"/><svg x="1369.12" y="90.12" width="29.759999999999998" height="29.759999999999998" viewBox="0 0 24 24"><g fill="none" stroke="white" stroke-width="1.7" stroke-linecap="round" stroke-linejoin="round"><path d="m3 5-2 10v6h22v-6L21 5ZM1 15h7l2 3h4l2-3h7"/></g></svg><text x="1424" y="104" font-family="Arial,sans-serif" font-size="24" font-weight="700" fill="#111111">COLLECT</text><text x="1424" y="135" font-family="Arial,sans-serif" font-size="20" font-weight="400" fill="#111111">Receive T / P / RH readings.</text><path d="M1384,226 V287" stroke="#111111" stroke-width="8"/><circle cx="1384" cy="201" r="24" fill="#111111"/><svg x="1369.12" y="186.12" width="29.759999999999998" height="29.759999999999998" viewBox="0 0 24 24"><g fill="none" stroke="white" stroke-width="1.7" stroke-linecap="round" stroke-linejoin="round"><path d="m6 12 4 4 10-11"/><path d="M20 12v7a2 2 0 0 1-2 2H5a2 2 0 0 1-2-2V5a2 2 0 0 1 2-2h10"/></g></svg><text x="1424" y="200" font-family="Arial,sans-serif" font-size="24" font-weight="700" fill="#111111">VALIDATE</text><text x="1424" y="231" font-family="Arial,sans-serif" font-size="20" font-weight="400" fill="#111111">Check timing and missing data.</text><path d="M1384,322 V383" stroke="#111111" stroke-width="8"/><circle cx="1384" cy="297" r="24" fill="#111111"/><svg x="1369.12" y="282.12" width="29.759999999999998" height="29.759999999999998" viewBox="0 0 24 24"><g fill="none" stroke="white" stroke-width="1.7" stroke-linecap="round" stroke-linejoin="round"><circle cx="10" cy="10" r="7"/><path d="m15 15 7 7"/></g></svg><text x="1424" y="296" font-family="Arial,sans-serif" font-size="24" font-weight="700" fill="#111111">CHECK</text><text x="1424" y="327" font-family="Arial,sans-serif" font-size="20" font-weight="400" fill="#111111">Use history, ML, physics + peers.</text><path d="M1384,418 V479" stroke="#111111" stroke-width="8"/><circle cx="1384" cy="393" r="24" fill="#111111"/><svg x="1369.12" y="378.12" width="29.759999999999998" height="29.759999999999998" viewBox="0 0 24 24"><g fill="none" stroke="white" stroke-width="1.7" stroke-linecap="round" stroke-linejoin="round"><path d="M21 11a9 9 0 0 1-13 8l-6 3 2-6A9 9 0 1 1 21 11Z"/></g></svg><text x="1424" y="392" font-family="Arial,sans-serif" font-size="24" font-weight="700" fill="#111111">EXPLAIN</text><text x="1424" y="423" font-family="Arial,sans-serif" font-size="20" font-weight="400" fill="#111111">Show the decision and evidence.</text><path d="M1384,514 V575" stroke="#111111" stroke-width="8"/><circle cx="1384" cy="489" r="24" fill="#111111"/><svg x="1369.12" y="474.12" width="29.759999999999998" height="29.759999999999998" viewBox="0 0 24 24"><g fill="none" stroke="white" stroke-width="1.7" stroke-linecap="round" stroke-linejoin="round"><circle cx="12" cy="7" r="4"/><path d="M4 22v-4a8 8 0 0 1 16 0v4"/></g></svg><text x="1424" y="488" font-family="Arial,sans-serif" font-size="24" font-weight="700" fill="#111111">REVIEW</text><text x="1424" y="519" font-family="Arial,sans-serif" font-size="20" font-weight="400" fill="#111111">Operator investigates or approves.</text><circle cx="1384" cy="585" r="24" fill="#111111"/><svg x="1369.12" y="570.12" width="29.759999999999998" height="29.759999999999998" viewBox="0 0 24 24"><g fill="none" stroke="white" stroke-width="1.7" stroke-linecap="round" stroke-linejoin="round"><circle cx="12" cy="12" r="9"/><path d="M12 6v6l4 3"/></g></svg><text x="1424" y="584" font-family="Arial,sans-serif" font-size="24" font-weight="700" fill="#111111">TRACE</text><text x="1424" y="615" font-family="Arial,sans-serif" font-size="20" font-weight="400" fill="#111111">Keep originals and review history.</text><text x="1359" y="694" font-family="Arial,sans-serif" font-size="19" font-weight="400" fill="#111111">Only current and past observations.</text></svg>